<svg width="22" height="22" viewBox="0 0 22 22" fill="none" xmlns="http://www.w3.org/2000/svg">
<g clip-path="url(#clip0_4347_26041)">
<path d="M17.875 2.75H4.125C3.76033 2.75 3.41059 2.89487 3.15273 3.15273C2.89487 3.41059 2.75 3.76033 2.75 4.125V17.875C2.75 18.2397 2.89487 18.5894 3.15273 18.8473C3.41059 19.1051 3.76033 19.25 4.125 19.25H17.875C18.2397 19.25 18.5894 19.1051 18.8473 18.8473C19.1051 18.5894 19.25 18.2397 19.25 17.875V4.125C19.25 3.76033 19.1051 3.41059 18.8473 3.15273C18.5894 2.89487 18.2397 2.75 17.875 2.75ZM15.6114 14.6386C15.6753 14.7025 15.726 14.7783 15.7605 14.8618C15.7951 14.9452 15.8129 15.0347 15.8129 15.125C15.8129 15.2153 15.7951 15.3048 15.7605 15.3882C15.726 15.4717 15.6753 15.5475 15.6114 15.6114C15.5475 15.6753 15.4717 15.726 15.3882 15.7605C15.3048 15.7951 15.2153 15.8129 15.125 15.8129C15.0347 15.8129 14.9452 15.7951 14.8618 15.7605C14.7783 15.726 14.7025 15.6753 14.6386 15.6114L11 11.972L7.36141 15.6114C7.2324 15.7404 7.05744 15.8129 6.875 15.8129C6.69256 15.8129 6.5176 15.7404 6.38859 15.6114C6.25959 15.4824 6.18712 15.3074 6.18712 15.125C6.18712 14.9426 6.25959 14.7676 6.38859 14.6386L10.028 11L6.38859 7.36141C6.25959 7.2324 6.18712 7.05744 6.18712 6.875C6.18712 6.69256 6.25959 6.5176 6.38859 6.38859C6.5176 6.25959 6.69256 6.18712 6.875 6.18712C7.05744 6.18712 7.2324 6.25959 7.36141 6.38859L11 10.028L14.6386 6.38859C14.7676 6.25959 14.9426 6.18712 15.125 6.18712C15.3074 6.18712 15.4824 6.25959 15.6114 6.38859C15.7404 6.5176 15.8129 6.69256 15.8129 6.875C15.8129 7.05744 15.7404 7.2324 15.6114 7.36141L11.972 11L15.6114 14.6386Z" fill="#FF5858"/>
</g>
<defs>
<clipPath id="clip0_4347_26041">
<rect width="22" height="22" fill="white"/>
</clipPath>
</defs>
</svg>
